<?xml version="1.0" encoding="utf-8"?><!-- Uploaded to: SVG Repo, www.svgrepo.com, Generator: SVG Repo Mixer Tools -->
<svg fill="#000000" width="800px" height="800px" viewBox="0 0 24 24" xmlns="http://www.w3.org/2000/svg"><path d="M18,1H6A3,3,0,0,0,3,4V22a1,1,0,0,0,1.8.6L6.829,19.9l1.276,2.552a1,1,0,0,0,.8.549.981.981,0,0,0,.89-.4L12,19.667,14.2,22.6a.983.983,0,0,0,.89.4,1,1,0,0,0,.8-.549L17.171,19.9,19.2,22.6a1,1,0,0,0,.8.4,1,1,0,0,0,1-1V4A3,3,0,0,0,18,1Zm1,18-1.2-1.6a.983.983,0,0,0-.89-.4,1,1,0,0,0-.8.549l-1.276,2.552L12.8,17.4a1,1,0,0,0-1.6,0L9.171,20.105,7.9,17.553A1,1,0,0,0,7.09,17a.987.987,0,0,0-.89.4L5,19V4A1,1,0,0,1,6,3H18a1,1,0,0,1,1,1ZM17,9a1,1,0,0,1-1,1H8A1,1,0,0,1,8,8h8A1,1,0,0,1,17,9Zm-4,4a1,1,0,0,1-1,1H8a1,1,0,0,1,0-2h4A1,1,0,0,1,13,13Z"/></svg>