<svg version="1.1" id="Layer_1" xmlns="http://www.w3.org/2000/svg" xmlns:xlink="http://www.w3.org/1999/xlink" x="0px" y="0px"
	 width="100%" viewBox="0 0 999 161" enable-background="new 0 0 999 161" xml:space="preserve">
<path fill="#FEFEFE" opacity="1.000000" stroke="none" 
	d="
M743.000000,162.000000 
	C495.333344,162.000000 248.166672,162.000000 1.000000,162.000000 
	C1.000000,108.333336 1.000000,54.666668 1.000000,1.000000 
	C334.000000,1.000000 667.000000,1.000000 1000.000000,1.000000 
	C1000.000000,54.666668 1000.000000,108.333336 1000.000000,162.000000 
	C914.500000,162.000000 829.000000,162.000000 743.000000,162.000000 
M88.226555,32.068100 
	C79.154243,30.150707 70.745384,27.308687 68.831512,19.547867 
	C63.945316,24.088623 58.529888,29.121197 53.522053,33.774990 
	C53.581337,33.792519 54.832535,34.162468 57.309719,34.894913 
	C52.049465,38.209087 47.776596,40.901169 43.458141,43.621971 
	C45.613590,45.225567 46.951241,46.220745 48.288895,47.215927 
	C46.800613,48.160568 45.315884,49.110870 43.822220,50.046917 
	C43.262844,50.397472 42.416374,50.573002 42.152275,51.068810 
	C38.672985,57.600754 31.651920,59.409775 26.169720,63.272793 
	C24.960165,64.125099 24.291805,65.745445 23.374235,67.012123 
	C23.685995,67.436378 23.997753,67.860634 24.309513,68.284889 
	C26.487850,67.839241 28.652025,67.158180 30.849222,67.026009 
	C32.467819,66.928635 34.980339,67.022102 35.569328,67.974136 
	C36.417187,69.344604 36.633896,72.100624 35.776466,73.322517 
	C34.026279,75.816612 31.546429,77.904930 29.066011,79.757118 
	C24.602968,83.089783 19.850559,86.034683 15.382968,89.361710 
	C14.485612,90.029968 14.318816,91.679237 13.815182,92.876198 
	C15.165273,93.224487 16.735836,94.184837 17.819820,93.794373 
	C20.116770,92.966988 22.045227,91.093201 24.350048,90.319801 
	C25.745718,89.851479 28.276590,90.084999 28.999344,91.013573 
	C29.791491,92.031303 29.539640,94.416901 28.898520,95.820908 
	C28.376780,96.963463 26.585070,97.504051 25.397909,98.368416 
	C18.147211,103.647629 10.908328,108.943069 3.665507,114.233093 
	C3.794863,114.700554 3.924219,115.168007 4.053575,115.635468 
	C6.035922,115.635468 8.210396,116.168915 9.965128,115.536934 
	C15.561018,113.521523 21.051613,111.185745 26.479961,108.744835 
	C29.247160,107.500542 32.549416,105.232925 34.325272,108.728035 
	C36.195862,112.409599 32.039642,113.681900 29.524782,114.718636 
	C24.029816,116.983902 18.315630,118.712303 12.760101,120.840424 
	C11.743105,121.229996 11.053198,122.473442 10.212311,123.322754 
	C11.265120,123.904907 12.268796,124.627098 13.388075,125.019798 
	C14.129764,125.280022 15.102249,125.274879 15.860252,125.035919 
	C24.179728,122.413155 32.526093,119.860527 40.758278,116.983070 
	C44.345619,115.729149 47.564610,115.323891 50.360023,118.259193 
	C53.064236,121.098740 53.394207,124.442299 51.674355,127.924706 
	C47.882381,135.602814 42.775257,141.899490 34.327377,144.912003 
	C31.959887,145.756287 29.855724,147.338989 27.630772,148.582977 
	C27.855053,149.044220 28.079336,149.505478 28.303617,149.966721 
	C29.021158,149.898056 29.814878,150.003998 30.442835,149.730011 
	C32.944927,148.638336 35.318542,146.680527 37.880890,146.417221 
	C43.266502,145.863831 47.924557,144.108032 51.676407,140.317856 
	C56.553787,135.390625 62.409206,139.404877 67.696808,138.357071 
	C68.118134,138.273590 68.765068,139.487213 69.351585,140.051895 
	C72.150444,142.746552 74.964653,145.425262 78.720535,149.014847 
	C78.380135,142.249771 81.622147,142.127914 85.336960,143.744980 
	C88.399864,145.078293 91.233955,146.952164 94.121193,148.667709 
	C95.531700,149.505798 96.832275,150.528885 98.182610,151.468246 
	C98.651176,150.975327 99.119743,150.482391 99.588310,149.989471 
	C98.272575,148.527008 97.181625,146.736404 95.604248,145.655884 
	C86.077812,139.130157 81.170692,130.695389 83.768700,118.838005 
	C84.832001,113.985092 86.924110,112.653122 91.460754,114.830666 
	C96.869446,117.426788 102.392845,118.370079 108.351402,117.789566 
	C115.199677,117.122398 121.547310,118.536530 127.043449,123.068710 
	C128.804718,124.521057 130.913086,125.664093 133.036438,126.514992 
	C133.988525,126.896530 135.899094,126.595467 136.403381,125.899910 
	C136.898224,125.217400 136.579742,123.204086 135.885788,122.538780 
	C133.742004,120.483482 131.377670,118.588066 128.863602,117.004211 
	C124.088341,113.995819 119.086533,111.345863 114.328423,108.312370 
	C113.287216,107.648560 112.130730,105.821556 112.365051,104.854309 
	C112.634575,103.741676 114.320213,102.357422 115.515610,102.225929 
	C117.369370,102.022011 119.400162,102.567551 121.224304,103.184448 
	C123.245018,103.867813 125.047211,105.244308 127.085861,105.807121 
	C128.049881,106.073265 129.343277,105.146393 130.487427,104.760048 
	C130.037521,103.791122 129.849045,102.324928 129.097473,101.929810 
	C121.164169,97.759064 117.092400,87.473251 106.029839,87.500076 
	C107.452950,86.076454 108.836197,85.172821 110.283730,85.054268 
	C113.597031,84.782936 116.956757,85.064606 120.266579,84.771317 
	C121.662643,84.647614 122.980400,83.640152 124.333755,83.034409 
	C123.115311,82.138252 122.020027,80.871071 120.654564,80.417824 
	C117.040779,79.218262 113.270874,78.492149 109.646492,77.319794 
	C108.322433,76.891510 107.233566,75.736137 106.037399,74.912460 
	C107.547386,74.505112 109.077759,73.698158 110.563087,73.773956 
	C113.614258,73.929657 116.641304,74.557961 119.678284,74.991745 
	C119.763756,74.481903 119.849228,73.972069 119.934700,73.462227 
	C109.858826,66.213486 99.782959,58.964745 89.087708,51.270420 
	C95.360672,46.805019 100.486870,54.192802 106.004173,51.398235 
	C102.019020,48.577171 98.308701,45.950657 94.598373,43.324146 
	C94.840034,42.943611 95.081688,42.563076 95.323341,42.182545 
	C96.989723,41.977051 98.656097,41.771561 100.322472,41.566067 
	C100.564613,41.039654 100.806747,40.513237 101.048882,39.986824 
	C97.007172,37.453957 92.965462,34.921093 88.226555,32.068100 
M352.558197,100.499687 
	C352.558197,109.264023 352.558197,118.028358 352.558197,126.902115 
	C365.964233,126.902115 378.779968,127.141357 391.577332,126.761673 
	C395.608368,126.642082 399.879700,125.468704 403.536133,123.721191 
	C411.941528,119.703972 416.193054,112.637848 415.960846,103.251381 
	C415.737488,94.224525 411.152985,87.948364 403.057220,84.125992 
	C402.289825,83.763664 401.591888,83.254234 400.590576,82.649307 
	C408.655182,79.173599 413.616028,73.891006 414.006531,65.196426 
	C414.564545,52.771767 406.657715,43.177044 393.370087,42.299496 
	C379.971497,41.414619 366.468903,42.104626 352.558258,42.104626 
	C352.558258,61.270897 352.558258,80.385292 352.558197,100.499687 
M966.760315,69.408615 
	C966.760315,71.846733 966.760315,74.284851 966.760315,76.787399 
	C953.643494,76.787399 941.226196,76.787399 928.235352,76.787399 
	C928.235352,65.111237 928.235352,53.710262 928.235352,42.230507 
	C922.799072,42.230507 917.946472,42.230507 913.109741,42.230507 
	C913.109741,70.602539 913.109741,98.531052 913.109741,126.640411 
	C918.235718,126.640411 923.114868,126.640411 928.407715,126.640411 
	C928.407715,114.346588 928.407715,102.404602 928.407715,90.304733 
	C941.351257,90.304733 953.870667,90.304733 966.825562,90.304733 
	C966.825562,102.613853 966.825562,114.538986 966.825562,126.632477 
	C972.143982,126.632477 977.018555,126.632477 981.763428,126.632477 
	C981.763428,98.208504 981.763428,70.152245 981.763428,42.160378 
	C976.622925,42.160378 971.885986,42.160378 966.760010,42.160378 
	C966.760010,51.162865 966.760010,59.798275 966.760315,69.408615 
M803.231506,68.940331 
	C800.660278,78.790375 800.385010,88.645515 802.932495,98.565514 
	C810.968689,129.858215 843.339539,133.500626 862.889160,124.047981 
	C872.502075,119.399918 877.953552,111.425140 880.034058,100.182007 
	C872.258972,101.319572 863.287170,96.352455 859.239075,107.446289 
	C858.597595,109.204468 856.266663,110.570381 854.435730,111.633598 
	C843.427979,118.025833 827.532043,114.134880 821.654419,102.925888 
	C815.132568,90.488396 815.260864,77.505478 822.112671,65.155777 
	C826.582336,57.099701 834.332336,54.230091 843.273804,54.486126 
	C851.971069,54.735165 858.698792,58.085361 862.146118,66.659561 
	C862.576782,67.730766 864.142029,68.978722 865.241821,69.038567 
	C870.029541,69.299088 874.839539,69.150459 879.691467,69.150459 
	C878.536072,59.199383 873.401794,51.173874 865.118713,45.966427 
	C842.401733,31.684652 812.255676,42.559494 803.231506,68.940331 
M217.904236,124.546478 
	C226.636581,119.502167 230.898148,111.917999 230.575684,101.859238 
	C230.247803,91.632179 224.360001,85.362473 215.487076,81.450722 
	C211.694565,79.778725 207.737473,78.483994 203.888397,76.935265 
	C199.737823,75.265236 195.480164,73.775452 191.538330,71.696701 
	C187.548508,69.592644 186.339935,65.750938 187.117981,61.430027 
	C187.883591,57.178204 190.766693,54.887436 194.828979,53.903904 
	C203.344254,51.842243 208.016541,54.718792 212.443222,64.708916 
	C217.607712,64.708916 222.744019,64.708916 228.256821,64.708916 
	C228.026855,55.375202 223.934525,48.559475 216.040634,44.278511 
	C207.111404,39.436066 197.585922,39.008095 187.951614,41.923206 
	C177.824295,44.987495 171.532974,52.377472 170.786224,61.719452 
	C169.891296,72.914764 173.763092,79.732010 184.320007,84.873665 
	C187.886810,86.610847 191.761826,87.705757 195.456345,89.192657 
	C199.911972,90.985893 204.483658,92.584053 208.714905,94.816643 
	C213.425674,97.302246 214.815125,101.831535 213.771530,106.802269 
	C212.730270,111.761894 209.076126,114.683243 204.210541,114.901833 
	C200.189987,115.082466 195.307892,115.168236 192.263245,113.125923 
	C188.515503,110.611984 186.277969,105.846611 182.968903,101.504807 
	C179.151596,101.504807 174.053925,101.504807 168.710571,101.504807 
	C168.691010,111.735420 173.037064,119.267647 181.626373,123.834457 
	C193.181412,129.978104 205.210770,130.021057 217.904236,124.546478 
M263.200348,84.499931 
	C263.200348,98.586319 263.200348,112.672707 263.200348,126.808022 
	C282.081024,126.808022 300.333801,126.808022 318.792999,126.808022 
	C318.792999,122.700554 318.792999,118.793045 318.792999,114.453682 
	C305.528320,114.453682 292.454468,114.453682 279.160767,114.453682 
	C279.160767,106.118065 279.160767,98.213684 279.160767,89.791809 
	C291.236877,89.791809 303.125214,89.791809 314.963623,89.791809 
	C314.963623,85.511276 314.963623,81.756088 314.963623,77.680420 
	C302.903076,77.680420 291.126343,77.680420 279.172974,77.680420 
	C279.172974,69.770142 279.172974,62.187752 279.172974,54.175575 
	C292.466705,54.175575 305.528900,54.175575 318.737549,54.175575 
	C318.737549,49.843098 318.737549,45.945000 318.737549,42.180656 
	C300.122314,42.180656 281.772827,42.180656 263.200348,42.180656 
	C263.200348,56.230419 263.200348,69.865173 263.200348,84.499931 
M498.435242,41.764427 
	C481.838135,41.764427 465.241028,41.764427 448.563843,41.764427 
	C448.563843,70.477669 448.563843,98.654221 448.563843,126.761063 
	C467.180695,126.761063 485.433044,126.761063 503.740173,126.761063 
	C503.740173,122.607498 503.740173,118.706116 503.740173,114.359894 
	C490.425385,114.359894 477.363190,114.359894 464.194763,114.359894 
	C464.194763,106.006462 464.194763,98.106239 464.194763,89.677467 
	C476.316833,89.677467 488.187683,89.677467 499.898254,89.677467 
	C499.898254,85.408653 499.898254,81.676552 499.898254,77.592468 
	C487.795227,77.592468 476.042206,77.592468 464.226807,77.592468 
	C464.226807,69.651718 464.226807,62.081493 464.226807,54.075577 
	C477.570618,54.075577 490.629028,54.075577 503.692383,54.075577 
	C503.692383,49.730164 503.692383,45.831863 503.692383,41.764545 
	C502.064636,41.764545 500.742981,41.764545 498.435242,41.764427 
M761.452393,41.782150 
	C746.038696,41.782150 730.624939,41.782150 715.228760,41.782150 
	C715.228760,70.592934 715.228760,98.638351 715.228760,126.641006 
	C733.816528,126.641006 752.034485,126.641006 770.436646,126.641006 
	C770.518799,125.320595 770.641663,124.340431 770.631042,123.361710 
	C770.513062,112.480415 771.841614,114.425156 761.760498,114.314896 
	C751.472107,114.202370 741.181458,114.289993 730.723511,114.289993 
	C730.723511,105.890633 730.723511,98.043602 730.723511,89.762794 
	C742.917542,89.762794 754.682495,89.762794 766.574585,89.762794 
	C766.574585,85.591293 766.574585,81.867393 766.574585,77.740219 
	C764.424561,77.740219 762.616943,77.740303 760.809387,77.740211 
	C751.980103,77.739738 743.148376,77.841194 734.324097,77.630783 
	C732.971680,77.598534 730.536072,76.178619 730.496460,75.313751 
	C730.179871,68.397659 730.319641,61.460693 730.319641,53.954491 
	C744.155884,53.954491 757.209167,53.954491 770.255798,53.954491 
	C770.255798,49.617077 770.255798,45.887527 770.255798,41.781929 
	C767.393616,41.781929 764.914368,41.781929 761.452393,41.782150 
M624.593750,54.147293 
	C630.850098,54.147293 637.106506,54.147293 643.848755,54.147293 
	C643.848755,78.759796 643.848755,102.646500 643.848755,126.588676 
	C649.228577,126.588676 654.094360,126.588676 659.431274,126.588676 
	C659.431274,102.289627 659.431274,78.395958 659.431274,54.034615 
	C667.829651,54.034615 675.746460,54.034615 683.874512,54.034615 
	C683.874512,49.821121 683.874512,46.086769 683.874512,42.225060 
	C662.106567,42.225060 640.614197,42.225060 619.098083,42.225060 
	C619.098083,46.278107 619.098083,49.894119 619.098083,53.836910 
	C620.731750,53.949131 622.174255,54.048225 624.593750,54.147293 
M553.307495,111.176361 
	C553.307495,88.105034 553.307495,65.033707 553.307495,42.009270 
	C547.800964,42.009270 543.033936,42.009270 538.204285,42.009270 
	C538.204285,70.432899 538.204285,98.625160 538.204285,126.738831 
	C555.972412,126.738831 573.397400,126.738831 590.858398,126.738831 
	C590.858398,122.729362 590.858398,118.983398 590.858398,114.886360 
	C579.490784,114.886360 568.363586,114.887344 557.236389,114.885437 
	C555.276794,114.885101 552.959839,115.377853 553.307495,111.176361 
z"/>
<path fill="#050505" opacity="1.000000" stroke="none" 
	d="
M88.575150,32.228165 
	C92.965462,34.921093 97.007172,37.453957 101.048882,39.986824 
	C100.806747,40.513237 100.564613,41.039654 100.322472,41.566067 
	C98.656097,41.771561 96.989723,41.977051 95.323341,42.182545 
	C95.081688,42.563076 94.840034,42.943611 94.598373,43.324146 
	C98.308701,45.950657 102.019020,48.577171 106.004173,51.398235 
	C100.486870,54.192802 95.360672,46.805019 89.087708,51.270420 
	C99.782959,58.964745 109.858826,66.213486 119.934700,73.462227 
	C119.849228,73.972069 119.763756,74.481903 119.678284,74.991745 
	C116.641304,74.557961 113.614258,73.929657 110.563087,73.773956 
	C109.077759,73.698158 107.547386,74.505112 106.037399,74.912460 
	C107.233566,75.736137 108.322433,76.891510 109.646492,77.319794 
	C113.270874,78.492149 117.040779,79.218262 120.654564,80.417824 
	C122.020027,80.871071 123.115311,82.138252 124.333755,83.034409 
	C122.980400,83.640152 121.662643,84.647614 120.266579,84.771317 
	C116.956757,85.064606 113.597031,84.782936 110.283730,85.054268 
	C108.836197,85.172821 107.452950,86.076454 106.029839,87.500076 
	C117.092400,87.473251 121.164169,97.759064 129.097473,101.929810 
	C129.849045,102.324928 130.037521,103.791122 130.487427,104.760056 
	C129.343277,105.146393 128.049881,106.073265 127.085861,105.807121 
	C125.047211,105.244308 123.245018,103.867813 121.224304,103.184448 
	C119.400162,102.567551 117.369370,102.022011 115.515610,102.225929 
	C114.320213,102.357422 112.634575,103.741676 112.365051,104.854309 
	C112.130730,105.821556 113.287216,107.648560 114.328423,108.312370 
	C119.086533,111.345863 124.088341,113.995819 128.863602,117.004211 
	C131.377670,118.588066 133.742004,120.483482 135.885788,122.538780 
	C136.579742,123.204086 136.898224,125.217400 136.403381,125.899910 
	C135.899094,126.595467 133.988525,126.896530 133.036438,126.514992 
	C130.913086,125.664093 128.804718,124.521057 127.043449,123.068710 
	C121.547310,118.536530 115.199677,117.122398 108.351402,117.789566 
	C102.392845,118.370079 96.869446,117.426788 91.460754,114.830666 
	C86.924110,112.653122 84.832001,113.985092 83.768700,118.838005 
	C81.170692,130.695389 86.077812,139.130157 95.604248,145.655884 
	C97.181625,146.736404 98.272575,148.527008 99.588310,149.989471 
	C99.119743,150.482391 98.651176,150.975327 98.182610,151.468246 
	C96.832275,150.528885 95.531700,149.505798 94.121193,148.667709 
	C91.233955,146.952164 88.399864,145.078293 85.336960,143.744980 
	C81.622147,142.127914 78.380135,142.249771 78.720535,149.014847 
	C74.964653,145.425262 72.150444,142.746552 69.351585,140.051895 
	C68.765068,139.487213 68.118134,138.273590 67.696808,138.357071 
	C62.409206,139.404877 56.553787,135.390625 51.676407,140.317856 
	C47.924557,144.108032 43.266502,145.863831 37.880890,146.417221 
	C35.318542,146.680527 32.944927,148.638336 30.442835,149.730011 
	C29.814878,150.003998 29.021158,149.898056 28.303617,149.966721 
	C28.079336,149.505478 27.855053,149.044220 27.630772,148.582977 
	C29.855724,147.338989 31.959887,145.756287 34.327377,144.912003 
	C42.775257,141.899490 47.882381,135.602814 51.674355,127.924706 
	C53.394207,124.442299 53.064236,121.098740 50.360023,118.259193 
	C47.564610,115.323891 44.345619,115.729149 40.758278,116.983070 
	C32.526093,119.860527 24.179728,122.413155 15.860252,125.035919 
	C15.102249,125.274879 14.129764,125.280022 13.388075,125.019798 
	C12.268796,124.627098 11.265120,123.904907 10.212310,123.322754 
	C11.053198,122.473442 11.743105,121.229996 12.760101,120.840424 
	C18.315630,118.712303 24.029816,116.983902 29.524782,114.718636 
	C32.039642,113.681900 36.195862,112.409599 34.325272,108.728035 
	C32.549416,105.232925 29.247160,107.500542 26.479961,108.744835 
	C21.051613,111.185745 15.561018,113.521523 9.965128,115.536934 
	C8.210396,116.168915 6.035922,115.635468 4.053575,115.635468 
	C3.924219,115.168007 3.794863,114.700554 3.665507,114.233093 
	C10.908328,108.943069 18.147211,103.647629 25.397909,98.368416 
	C26.585070,97.504051 28.376780,96.963463 28.898520,95.820908 
	C29.539640,94.416901 29.791491,92.031303 28.999344,91.013573 
	C28.276590,90.084999 25.745718,89.851479 24.350048,90.319801 
	C22.045227,91.093201 20.116770,92.966988 17.819820,93.794373 
	C16.735836,94.184837 15.165273,93.224487 13.815182,92.876198 
	C14.318816,91.679237 14.485612,90.029968 15.382968,89.361710 
	C19.850559,86.034683 24.602968,83.089783 29.066011,79.757118 
	C31.546429,77.904930 34.026279,75.816612 35.776466,73.322517 
	C36.633896,72.100624 36.417187,69.344604 35.569328,67.974136 
	C34.980339,67.022102 32.467819,66.928635 30.849222,67.026009 
	C28.652025,67.158180 26.487850,67.839241 24.309513,68.284889 
	C23.997753,67.860634 23.685995,67.436378 23.374235,67.012123 
	C24.291805,65.745445 24.960165,64.125099 26.169720,63.272793 
	C31.651920,59.409775 38.672985,57.600754 42.152275,51.068810 
	C42.416374,50.573002 43.262844,50.397472 43.822220,50.046917 
	C45.315884,49.110870 46.800613,48.160568 48.288895,47.215927 
	C46.951241,46.220745 45.613590,45.225567 43.458141,43.621971 
	C47.776596,40.901169 52.049465,38.209087 57.309719,34.894913 
	C54.832535,34.162468 53.581337,33.792519 53.522053,33.774990 
	C58.529888,29.121197 63.945316,24.088623 68.831512,19.547867 
	C70.745384,27.308687 79.154243,30.150707 88.575150,32.228165 
M33.410980,91.375504 
	C36.396290,90.895866 39.436954,90.615829 42.332569,89.812759 
	C43.181301,89.577377 43.617966,87.856209 44.243492,86.816017 
	C43.179398,86.201401 42.095379,85.036736 41.054913,85.074432 
	C37.825394,85.191414 34.612419,85.765083 30.719248,86.244522 
	C31.676804,88.235268 32.290298,89.510719 33.410980,91.375504 
M92.278877,94.721672 
	C91.841110,96.069679 91.403343,97.417686 90.965569,98.765678 
	C93.456917,98.537659 96.001511,98.526665 98.404137,97.937080 
	C99.047310,97.779251 99.257111,95.855370 99.665863,94.742249 
	C97.723351,94.487022 95.782867,94.213577 93.836136,93.996086 
	C93.542099,93.963234 93.218933,94.191116 92.278877,94.721672 
M111.193260,100.724731 
	C110.790642,99.213043 110.388031,97.701355 109.985413,96.189674 
	C108.080475,96.926552 106.014336,97.419243 104.348816,98.518776 
	C103.668999,98.967575 103.857277,100.731339 103.650604,101.896851 
	C105.345345,102.185379 107.035278,102.631325 108.737228,102.683189 
	C109.397095,102.703300 110.084114,101.832115 111.193260,100.724731 
M84.245628,60.879967 
	C80.820847,62.514236 80.931000,64.522385 84.135193,65.982483 
	C85.536438,66.621010 87.592865,66.185661 89.217812,65.744530 
	C89.696701,65.614525 90.183395,63.078438 89.868263,62.873703 
	C88.389900,61.913239 86.633263,61.381107 84.245628,60.879967 
M43.900745,69.247841 
	C46.653576,66.367462 44.081738,64.760643 42.176685,63.509174 
	C41.258030,62.905693 39.515942,63.555683 38.146713,63.638088 
	C39.062569,65.545181 39.873531,67.516472 40.972252,69.311646 
	C41.228584,69.730461 42.462086,69.551208 43.900745,69.247841 
M67.746681,49.445591 
	C68.434982,48.346649 69.123276,47.247707 69.811569,46.148758 
	C69.168518,45.748329 68.302406,44.855640 67.919449,45.029179 
	C65.794548,45.992085 63.787067,47.214127 61.739391,48.347454 
	C61.963032,48.925888 62.186672,49.504322 62.410313,50.082756 
	C63.944050,49.983410 65.477783,49.884064 67.746681,49.445591 
M54.010220,51.496975 
	C53.119637,52.724998 52.229053,53.953022 51.098042,55.512566 
	C56.900871,55.985188 58.970303,54.090252 58.115520,49.384773 
	C56.902466,49.953720 55.782818,50.478859 54.010220,51.496975 
M93.088921,73.593033 
	C94.475197,74.578491 95.861473,75.563957 97.247749,76.549423 
	C97.721848,75.331810 98.941154,73.698128 98.535561,72.971672 
	C97.104576,70.408699 95.128044,71.005737 93.088921,73.593033 
M49.987225,99.944717 
	C45.331398,100.524818 48.515217,103.274765 48.830841,104.931328 
	C48.986084,105.746124 50.596500,106.283669 51.548405,106.946678 
	C51.830410,105.516891 52.356277,104.077629 52.301170,102.660950 
	C52.269112,101.836868 51.305340,101.049034 49.987225,99.944717 
M51.133438,61.120197 
	C49.709015,62.205360 48.284592,63.290520 46.860172,64.375687 
	C47.991955,64.955490 49.281563,66.205246 50.224430,65.983124 
	C52.576725,65.428978 54.173584,63.999805 51.133438,61.120197 
M68.952003,80.541817 
	C69.675789,82.011063 70.312225,83.539963 71.226692,84.878975 
	C71.350060,85.059608 73.655197,84.124771 73.625107,83.977890 
	C73.314178,82.460121 72.925278,80.873978 72.108025,79.594269 
	C71.853561,79.195808 70.234657,79.668709 68.952003,80.541817 
z"/>
<path fill="#151314" opacity="1.000000" stroke="none" 
	d="
M352.558228,99.999680 
	C352.558258,80.385292 352.558258,61.270897 352.558258,42.104626 
	C366.468903,42.104626 379.971497,41.414619 393.370087,42.299496 
	C406.657715,43.177044 414.564545,52.771767 414.006531,65.196426 
	C413.616028,73.891006 408.655182,79.173599 400.590576,82.649307 
	C401.591888,83.254234 402.289825,83.763664 403.057220,84.125992 
	C411.152985,87.948364 415.737488,94.224525 415.960846,103.251381 
	C416.193054,112.637848 411.941528,119.703972 403.536133,123.721191 
	C399.879700,125.468704 395.608368,126.642082 391.577332,126.761673 
	C378.779968,127.141357 365.964233,126.902115 352.558197,126.902115 
	C352.558197,118.028358 352.558197,109.264023 352.558228,99.999680 
M368.077789,93.703392 
	C368.077789,100.475128 368.077789,107.246857 368.077789,114.039543 
	C375.481537,114.039543 382.327667,114.495018 389.088837,113.931290 
	C398.885437,113.114487 404.003418,102.058365 397.726593,94.789253 
	C395.222656,91.889503 390.533234,90.160416 386.557190,89.429237 
	C381.561340,88.510521 376.269379,89.317680 371.119293,89.077827 
	C368.104553,88.937424 367.867401,90.519379 368.077789,93.703392 
M392.896606,75.648552 
	C397.824249,72.516747 398.890472,67.815674 397.698517,62.579578 
	C396.509521,57.356377 392.500702,54.820484 387.505829,54.523270 
	C381.121368,54.143364 374.697174,54.431087 368.319275,54.431087 
	C368.319275,62.273029 368.319275,69.689636 368.319275,78.251709 
	C376.498566,77.474998 384.343292,76.730057 392.896606,75.648552 
z"/>
<path fill="#3D8BD9" opacity="1.000000" stroke="none" 
	d="
M966.760132,68.921150 
	C966.760010,59.798275 966.760010,51.162865 966.760010,42.160378 
	C971.885986,42.160378 976.622925,42.160378 981.763428,42.160378 
	C981.763428,70.152245 981.763428,98.208504 981.763428,126.632477 
	C977.018555,126.632477 972.143982,126.632477 966.825562,126.632477 
	C966.825562,114.538986 966.825562,102.613853 966.825562,90.304733 
	C953.870667,90.304733 941.351257,90.304733 928.407715,90.304733 
	C928.407715,102.404602 928.407715,114.346588 928.407715,126.640411 
	C923.114868,126.640411 918.235718,126.640411 913.109741,126.640411 
	C913.109741,98.531052 913.109741,70.602539 913.109741,42.230507 
	C917.946472,42.230507 922.799072,42.230507 928.235352,42.230507 
	C928.235352,53.710262 928.235352,65.111237 928.235352,76.787399 
	C941.226196,76.787399 953.643494,76.787399 966.760315,76.787399 
	C966.760315,74.284851 966.760315,71.846733 966.760132,68.921150 
z"/>
<path fill="#408DDA" opacity="1.000000" stroke="none" 
	d="
M803.376343,68.563713 
	C812.255676,42.559494 842.401733,31.684652 865.118713,45.966427 
	C873.401794,51.173874 878.536072,59.199383 879.691467,69.150459 
	C874.839539,69.150459 870.029541,69.299088 865.241821,69.038567 
	C864.142029,68.978722 862.576782,67.730766 862.146118,66.659561 
	C858.698792,58.085361 851.971069,54.735165 843.273804,54.486126 
	C834.332336,54.230091 826.582336,57.099701 822.112671,65.155777 
	C815.260864,77.505478 815.132568,90.488396 821.654419,102.925888 
	C827.532043,114.134880 843.427979,118.025833 854.435730,111.633598 
	C856.266663,110.570381 858.597595,109.204468 859.239075,107.446289 
	C863.287170,96.352455 872.258972,101.319572 880.034058,100.182007 
	C877.953552,111.425140 872.502075,119.399918 862.889160,124.047981 
	C843.339539,133.500626 810.968689,129.858215 802.932495,98.565514 
	C800.385010,88.645515 800.660278,78.790375 803.376343,68.563713 
z"/>
<path fill="#181617" opacity="1.000000" stroke="none" 
	d="
M217.578690,124.730537 
	C205.210770,130.021057 193.181412,129.978104 181.626373,123.834457 
	C173.037064,119.267647 168.691010,111.735420 168.710571,101.504807 
	C174.053925,101.504807 179.151596,101.504807 182.968903,101.504807 
	C186.277969,105.846611 188.515503,110.611984 192.263245,113.125923 
	C195.307892,115.168236 200.189987,115.082466 204.210541,114.901833 
	C209.076126,114.683243 212.730270,111.761894 213.771530,106.802269 
	C214.815125,101.831535 213.425674,97.302246 208.714905,94.816643 
	C204.483658,92.584053 199.911972,90.985893 195.456345,89.192657 
	C191.761826,87.705757 187.886810,86.610847 184.320007,84.873665 
	C173.763092,79.732010 169.891296,72.914764 170.786224,61.719452 
	C171.532974,52.377472 177.824295,44.987495 187.951614,41.923206 
	C197.585922,39.008095 207.111404,39.436066 216.040634,44.278511 
	C223.934525,48.559475 228.026855,55.375202 228.256821,64.708916 
	C222.744019,64.708916 217.607712,64.708916 212.443222,64.708916 
	C208.016541,54.718792 203.344254,51.842243 194.828979,53.903904 
	C190.766693,54.887436 187.883591,57.178204 187.117981,61.430027 
	C186.339935,65.750938 187.548508,69.592644 191.538330,71.696701 
	C195.480164,73.775452 199.737823,75.265236 203.888397,76.935265 
	C207.737473,78.483994 211.694565,79.778725 215.487076,81.450722 
	C224.360001,85.362473 230.247803,91.632179 230.575684,101.859238 
	C230.898148,111.917999 226.636581,119.502167 217.578690,124.730537 
z"/>
<path fill="#181617" opacity="1.000000" stroke="none" 
	d="
M263.200348,83.999924 
	C263.200348,69.865173 263.200348,56.230419 263.200348,42.180656 
	C281.772827,42.180656 300.122314,42.180656 318.737549,42.180656 
	C318.737549,45.945000 318.737549,49.843098 318.737549,54.175575 
	C305.528900,54.175575 292.466705,54.175575 279.172974,54.175575 
	C279.172974,62.187752 279.172974,69.770142 279.172974,77.680420 
	C291.126343,77.680420 302.903076,77.680420 314.963623,77.680420 
	C314.963623,81.756088 314.963623,85.511276 314.963623,89.791809 
	C303.125214,89.791809 291.236877,89.791809 279.160767,89.791809 
	C279.160767,98.213684 279.160767,106.118065 279.160767,114.453682 
	C292.454468,114.453682 305.528320,114.453682 318.792999,114.453682 
	C318.792999,118.793045 318.792999,122.700554 318.792999,126.808022 
	C300.333801,126.808022 282.081024,126.808022 263.200348,126.808022 
	C263.200348,112.672707 263.200348,98.586319 263.200348,83.999924 
z"/>
<path fill="#181617" opacity="1.000000" stroke="none" 
	d="
M498.928284,41.764488 
	C500.742981,41.764545 502.064636,41.764545 503.692383,41.764545 
	C503.692383,45.831863 503.692383,49.730164 503.692383,54.075577 
	C490.629028,54.075577 477.570618,54.075577 464.226807,54.075577 
	C464.226807,62.081493 464.226807,69.651718 464.226807,77.592468 
	C476.042206,77.592468 487.795227,77.592468 499.898254,77.592468 
	C499.898254,81.676552 499.898254,85.408653 499.898254,89.677467 
	C488.187683,89.677467 476.316833,89.677467 464.194763,89.677467 
	C464.194763,98.106239 464.194763,106.006462 464.194763,114.359894 
	C477.363190,114.359894 490.425385,114.359894 503.740173,114.359894 
	C503.740173,118.706116 503.740173,122.607498 503.740173,126.761063 
	C485.433044,126.761063 467.180695,126.761063 448.563843,126.761063 
	C448.563843,98.654221 448.563843,70.477669 448.563843,41.764427 
	C465.241028,41.764427 481.838135,41.764427 498.928284,41.764488 
z"/>
<path fill="#3F8DDA" opacity="1.000000" stroke="none" 
	d="
M761.943787,41.782040 
	C764.914368,41.781929 767.393616,41.781929 770.255798,41.781929 
	C770.255798,45.887527 770.255798,49.617077 770.255798,53.954491 
	C757.209167,53.954491 744.155884,53.954491 730.319641,53.954491 
	C730.319641,61.460693 730.179871,68.397659 730.496460,75.313751 
	C730.536072,76.178619 732.971680,77.598534 734.324097,77.630783 
	C743.148376,77.841194 751.980103,77.739738 760.809387,77.740211 
	C762.616943,77.740303 764.424561,77.740219 766.574585,77.740219 
	C766.574585,81.867393 766.574585,85.591293 766.574585,89.762794 
	C754.682495,89.762794 742.917542,89.762794 730.723511,89.762794 
	C730.723511,98.043602 730.723511,105.890633 730.723511,114.289993 
	C741.181458,114.289993 751.472107,114.202370 761.760498,114.314896 
	C771.841614,114.425156 770.513062,112.480415 770.631042,123.361710 
	C770.641663,124.340431 770.518799,125.320595 770.436646,126.641006 
	C752.034485,126.641006 733.816528,126.641006 715.228760,126.641006 
	C715.228760,98.638351 715.228760,70.592934 715.228760,41.782150 
	C730.624939,41.782150 746.038696,41.782150 761.943787,41.782040 
z"/>
<path fill="#3C8BD9" opacity="1.000000" stroke="none" 
	d="
M624.105225,54.147308 
	C622.174255,54.048225 620.731750,53.949131 619.098083,53.836910 
	C619.098083,49.894119 619.098083,46.278107 619.098083,42.225060 
	C640.614197,42.225060 662.106567,42.225060 683.874512,42.225060 
	C683.874512,46.086769 683.874512,49.821121 683.874512,54.034615 
	C675.746460,54.034615 667.829651,54.034615 659.431274,54.034615 
	C659.431274,78.395958 659.431274,102.289627 659.431274,126.588676 
	C654.094360,126.588676 649.228577,126.588676 643.848755,126.588676 
	C643.848755,102.646500 643.848755,78.759796 643.848755,54.147293 
	C637.106506,54.147293 630.850098,54.147293 624.105225,54.147308 
z"/>
<path fill="#131112" opacity="1.000000" stroke="none" 
	d="
M553.308228,111.642059 
	C552.959839,115.377853 555.276794,114.885101 557.236389,114.885437 
	C568.363586,114.887344 579.490784,114.886360 590.858398,114.886360 
	C590.858398,118.983398 590.858398,122.729362 590.858398,126.738831 
	C573.397400,126.738831 555.972412,126.738831 538.204285,126.738831 
	C538.204285,98.625160 538.204285,70.432899 538.204285,42.009270 
	C543.033936,42.009270 547.800964,42.009270 553.307495,42.009270 
	C553.307495,65.033707 553.307495,88.105034 553.308228,111.642059 
z"/>
<path fill="#F2F2F2" opacity="1.000000" stroke="none" 
	d="
M33.157387,91.080833 
	C32.290298,89.510719 31.676804,88.235268 30.719248,86.244522 
	C34.612419,85.765083 37.825394,85.191414 41.054913,85.074432 
	C42.095379,85.036736 43.179398,86.201401 44.243492,86.816017 
	C43.617966,87.856209 43.181301,89.577377 42.332569,89.812759 
	C39.436954,90.615829 36.396290,90.895866 33.157387,91.080833 
z"/>
<path fill="#F0F0F0" opacity="1.000000" stroke="none" 
	d="
M92.594055,94.510025 
	C93.218933,94.191116 93.542099,93.963234 93.836136,93.996086 
	C95.782867,94.213577 97.723351,94.487022 99.665863,94.742249 
	C99.257111,95.855370 99.047310,97.779251 98.404137,97.937080 
	C96.001511,98.526665 93.456917,98.537659 90.965576,98.765686 
	C91.403343,97.417686 91.841110,96.069679 92.594055,94.510025 
z"/>
<path fill="#E7E7E7" opacity="1.000000" stroke="none" 
	d="
M110.976013,101.045853 
	C110.084114,101.832115 109.397095,102.703300 108.737228,102.683189 
	C107.035278,102.631325 105.345345,102.185379 103.650604,101.896851 
	C103.857277,100.731339 103.668999,98.967575 104.348816,98.518776 
	C106.014336,97.419243 108.080475,96.926552 109.985413,96.189667 
	C110.388031,97.701355 110.790642,99.213043 110.976013,101.045853 
z"/>
<path fill="#EFEFEF" opacity="1.000000" stroke="none" 
	d="
M84.610809,60.787991 
	C86.633263,61.381107 88.389900,61.913239 89.868263,62.873703 
	C90.183395,63.078438 89.696701,65.614525 89.217812,65.744530 
	C87.592865,66.185661 85.536438,66.621010 84.135193,65.982483 
	C80.931000,64.522385 80.820847,62.514236 84.610809,60.787991 
z"/>
<path fill="#F1F1F1" opacity="1.000000" stroke="none" 
	d="
M43.573364,69.447479 
	C42.462086,69.551208 41.228584,69.730461 40.972252,69.311646 
	C39.873531,67.516472 39.062569,65.545181 38.146713,63.638088 
	C39.515942,63.555683 41.258030,62.905693 42.176685,63.509174 
	C44.081738,64.760643 46.653576,66.367462 43.573364,69.447479 
z"/>
<path fill="#E7E7E7" opacity="1.000000" stroke="none" 
	d="
M67.379105,49.615154 
	C65.477783,49.884064 63.944050,49.983410 62.410313,50.082756 
	C62.186672,49.504322 61.963032,48.925888 61.739391,48.347454 
	C63.787067,47.214127 65.794548,45.992085 67.919449,45.029179 
	C68.302406,44.855640 69.168518,45.748329 69.811569,46.148758 
	C69.123276,47.247707 68.434982,48.346649 67.379105,49.615154 
z"/>
<path fill="#EDEDED" opacity="1.000000" stroke="none" 
	d="
M54.336697,51.250484 
	C55.782818,50.478859 56.902466,49.953720 58.115520,49.384773 
	C58.970303,54.090252 56.900871,55.985188 51.098042,55.512566 
	C52.229053,53.953022 53.119637,52.724998 54.336697,51.250484 
z"/>
<path fill="#E4E4E4" opacity="1.000000" stroke="none" 
	d="
M93.228683,73.255394 
	C95.128044,71.005737 97.104576,70.408699 98.535561,72.971672 
	C98.941154,73.698128 97.721848,75.331810 97.247749,76.549423 
	C95.861473,75.563957 94.475197,74.578491 93.228683,73.255394 
z"/>
<path fill="#EAEAEA" opacity="1.000000" stroke="none" 
	d="
M50.374012,100.094803 
	C51.305340,101.049034 52.269112,101.836868 52.301170,102.660950 
	C52.356277,104.077629 51.830410,105.516891 51.548405,106.946678 
	C50.596500,106.283669 48.986084,105.746124 48.830841,104.931328 
	C48.515217,103.274765 45.331398,100.524818 50.374012,100.094803 
z"/>
<path fill="#E8E8E8" opacity="1.000000" stroke="none" 
	d="
M51.494923,61.294495 
	C54.173584,63.999805 52.576725,65.428978 50.224430,65.983124 
	C49.281563,66.205246 47.991955,64.955490 46.860168,64.375687 
	C48.284592,63.290520 49.709015,62.205360 51.494923,61.294495 
z"/>
<path fill="#F0F0F0" opacity="1.000000" stroke="none" 
	d="
M69.096191,80.142265 
	C70.234657,79.668709 71.853561,79.195808 72.108025,79.594269 
	C72.925278,80.873978 73.314178,82.460121 73.625107,83.977890 
	C73.655197,84.124771 71.350060,85.059608 71.226692,84.878975 
	C70.312225,83.539963 69.675789,82.011063 69.096191,80.142265 
z"/>
<path fill="#FBFBFB" opacity="1.000000" stroke="none" 
	d="
M368.077820,93.228073 
	C367.867401,90.519379 368.104553,88.937424 371.119293,89.077827 
	C376.269379,89.317680 381.561340,88.510521 386.557190,89.429237 
	C390.533234,90.160416 395.222656,91.889503 397.726593,94.789253 
	C404.003418,102.058365 398.885437,113.114487 389.088837,113.931290 
	C382.327667,114.495018 375.481537,114.039543 368.077789,114.039543 
	C368.077789,107.246857 368.077789,100.475128 368.077820,93.228073 
z"/>
<path fill="#F8F8F8" opacity="1.000000" stroke="none" 
	d="
M392.542297,75.816833 
	C384.343292,76.730057 376.498566,77.474998 368.319275,78.251709 
	C368.319275,69.689636 368.319275,62.273029 368.319275,54.431087 
	C374.697174,54.431087 381.121368,54.143364 387.505829,54.523270 
	C392.500702,54.820484 396.509521,57.356377 397.698517,62.579578 
	C398.890472,67.815674 397.824249,72.516747 392.542297,75.816833 
z"/>
</svg>