<svg xmlns="http://www.w3.org/2000/svg" width="420" height="154" fill="none" xmlns:v="https://vecta.io/nano"><g clip-path="url(#A)"><path d="M43.475 23.46c-1.303-1.587-2.918-2.805-4.845-3.655-1.87-.85-4.052-1.275-6.545-1.275s-4.817.482-6.97 1.445c-2.097.963-3.938 2.323-5.525 4.08-1.53 1.7-2.748 3.74-3.655 6.12-.85 2.38-1.275 4.958-1.275 7.735 0 2.833.425 5.44 1.275 7.82.907 2.323 2.125 4.363 3.655 6.12 1.53 1.7 3.315 3.032 5.355 3.995 2.097.963 4.335 1.445 6.715 1.445 2.72 0 5.128-.567 7.225-1.7s3.825-2.72 5.185-4.76l11.05 8.245c-2.55 3.57-5.78 6.205-9.69 7.905s-7.933 2.55-12.07 2.55c-4.703 0-9.038-.737-13.005-2.21s-7.395-3.57-10.285-6.29C7.18 58.253 4.913 54.91 3.27 51 1.683 47.09.89 42.727.89 37.91s.793-9.18 2.38-13.09c1.643-3.91 3.91-7.225 6.8-9.945 2.89-2.777 6.318-4.902 10.285-6.375s8.302-2.21 13.005-2.21c1.7 0 3.457.17 5.27.51a25.68 25.68 0 0 1 5.44 1.445c1.813.68 3.542 1.587 5.185 2.72s3.117 2.522 4.42 4.165l-10.2 8.33zm17.219 3.23h12.75v6.63h.17c1.36-2.55 2.975-4.448 4.845-5.695 1.87-1.303 4.222-1.955 7.055-1.955a28.79 28.79 0 0 1 2.21.085c.737.057 1.417.17 2.04.34V37.74a15.59 15.59 0 0 0-2.72-.595c-.85-.17-1.757-.255-2.72-.255-2.437 0-4.363.34-5.78 1.02s-2.522 1.643-3.315 2.89c-.737 1.19-1.218 2.635-1.445 4.335s-.34 3.57-.34 5.61V68h-12.75V26.69zm34.784 0h12.75V68h-12.75V26.69zm-1.02-13.005c0-2.04.708-3.768 2.125-5.185 1.473-1.473 3.23-2.21 5.27-2.21s3.768.737 5.185 2.21c1.473 1.417 2.21 3.145 2.21 5.185s-.737 3.797-2.21 5.27c-1.417 1.417-3.145 2.125-5.185 2.125s-3.797-.708-5.27-2.125c-1.417-1.473-2.125-3.23-2.125-5.27zm51.065 23.205h-11.22v13.77c0 1.133.056 2.182.17 3.145.113.907.368 1.7.765 2.38s.991 1.218 1.785 1.615c.85.34 1.955.51 3.315.51.68 0 1.558-.057 2.635-.17 1.133-.17 1.983-.51 2.55-1.02v10.625c-1.417.51-2.89.85-4.42 1.02s-3.032.255-4.505.255c-2.154 0-4.137-.227-5.95-.68s-3.4-1.162-4.76-2.125c-1.36-1.02-2.437-2.323-3.23-3.91-.737-1.587-1.105-3.513-1.105-5.78V36.89h-8.16v-10.2h8.16V14.45h12.75v12.24h11.22v10.2zm6.649-10.2h12.75V68h-12.75V26.69zm-1.02-13.005c0-2.04.708-3.768 2.125-5.185 1.473-1.473 3.23-2.21 5.27-2.21s3.768.737 5.185 2.21c1.473 1.417 2.21 3.145 2.21 5.185s-.737 3.797-2.21 5.27c-1.417 1.417-3.145 2.125-5.185 2.125s-3.797-.708-5.27-2.125c-1.417-1.473-2.125-3.23-2.125-5.27zm50.895 26.35c-.623-.907-1.502-1.643-2.635-2.21-1.133-.623-2.352-.935-3.655-.935-3.23 0-5.752.963-7.565 2.89-1.757 1.927-2.635 4.448-2.635 7.565s.878 5.638 2.635 7.565c1.813 1.927 4.335 2.89 7.565 2.89 1.417 0 2.635-.312 3.655-.935s1.898-1.36 2.635-2.21l8.415 8.84a16.59 16.59 0 0 1-7.055 4.335c-2.663.793-5.213 1.19-7.65 1.19-3.173 0-6.177-.51-9.01-1.53-2.777-1.02-5.213-2.465-7.31-4.335-2.04-1.927-3.655-4.222-4.845-6.885s-1.785-5.638-1.785-8.925.595-6.262 1.785-8.925 2.805-4.93 4.845-6.8c2.097-1.927 4.533-3.4 7.31-4.42 2.833-1.02 5.837-1.53 9.01-1.53 2.437 0 4.987.425 7.65 1.275 2.72.793 5.072 2.21 7.055 4.25l-8.415 8.84zm38.966 22.78h-.17c-1.417 2.21-3.315 3.797-5.695 4.76-2.323.963-4.788 1.445-7.395 1.445-1.927 0-3.797-.283-5.61-.85-1.757-.51-3.315-1.303-4.675-2.38s-2.437-2.408-3.23-3.995-1.19-3.428-1.19-5.525c0-2.38.425-4.392 1.275-6.035a12.41 12.41 0 0 1 3.57-4.08c1.53-1.077 3.258-1.898 5.185-2.465 1.927-.623 3.91-1.077 5.95-1.36 2.097-.283 4.165-.453 6.205-.51l5.78-.085c0-2.267-.822-4.052-2.465-5.355-1.587-1.36-3.485-2.04-5.695-2.04-2.097 0-4.023.453-5.78 1.36-1.7.85-3.23 2.04-4.59 3.57l-6.8-6.97c2.38-2.21 5.157-3.853 8.33-4.93 3.173-1.133 6.46-1.7 9.86-1.7 3.74 0 6.8.482 9.18 1.445 2.437.907 4.363 2.267 5.78 4.08 1.473 1.813 2.493 4.052 3.06 6.715.567 2.607.85 5.638.85 9.095V68h-11.73v-5.185zm-3.145-12.92c-.963 0-2.182.057-3.655.17-1.417.057-2.805.283-4.165.68-1.303.397-2.437.992-3.4 1.785-.907.793-1.36 1.898-1.36 3.315 0 1.53.652 2.663 1.955 3.4s2.663 1.105 4.08 1.105c1.247 0 2.437-.17 3.57-.51 1.19-.34 2.238-.822 3.145-1.445a6.59 6.59 0 0 0 2.125-2.38c.567-.963.85-2.097.85-3.4v-2.72h-3.145zM260.912 3.74h12.75V68h-12.75V3.74zM4.12 89.82h20.06l13.855 39.27h.17l13.94-39.27H72.12V150H58.86v-46.155h-.17L42.88 150H32.765L17.55 103.845h-.17V150H4.12V89.82zm77.124 39.525c0-3.287.595-6.262 1.785-8.925s2.805-4.93 4.845-6.8c2.097-1.927 4.533-3.4 7.31-4.42 2.833-1.02 5.836-1.53 9.01-1.53s6.148.51 8.925 1.53c2.833 1.02 5.27 2.493 7.31 4.42 2.096 1.87 3.74 4.137 4.93 6.8s1.785 5.638 1.785 8.925-.595 6.262-1.785 8.925-2.834 4.958-4.93 6.885c-2.04 1.87-4.477 3.315-7.31 4.335-2.777 1.02-5.752 1.53-8.925 1.53s-6.177-.51-9.01-1.53c-2.777-1.02-5.213-2.465-7.31-4.335-2.04-1.927-3.655-4.222-4.845-6.885s-1.785-5.638-1.785-8.925zm12.75 0c0 3.117.878 5.638 2.635 7.565 1.813 1.927 4.335 2.89 7.565 2.89s5.723-.963 7.48-2.89c1.813-1.927 2.72-4.448 2.72-7.565s-.907-5.638-2.72-7.565c-1.757-1.927-4.25-2.89-7.48-2.89s-5.752.963-7.565 2.89c-1.757 1.927-2.635 4.448-2.635 7.565zm40.659-20.655h12.24v5.61h.17c.397-.793.964-1.587 1.7-2.38s1.615-1.502 2.635-2.125 2.182-1.133 3.485-1.53 2.72-.595 4.25-.595c2.89 0 5.44.595 7.65 1.785 2.267 1.19 3.967 3.06 5.1 5.61 1.474-2.663 3.259-4.562 5.355-5.695s4.675-1.7 7.735-1.7c2.777 0 5.1.482 6.97 1.445 1.927.907 3.429 2.182 4.505 3.825 1.134 1.587 1.927 3.485 2.38 5.695.51 2.153.765 4.477.765 6.97V150h-12.75v-24.055c0-1.927-.425-3.57-1.275-4.93-.793-1.417-2.238-2.125-4.335-2.125-1.473 0-2.72.255-3.74.765-.963.453-1.756 1.105-2.38 1.955-.566.85-.991 1.842-1.275 2.975-.226 1.133-.34 2.323-.34 3.57V150h-12.75v-21.845c0-.737-.028-1.643-.085-2.72s-.255-2.097-.595-3.06-.906-1.785-1.7-2.465c-.736-.68-1.841-1.02-3.315-1.02-1.643 0-2.975.312-3.995.935-1.02.567-1.813 1.36-2.38 2.38-.51.963-.85 2.068-1.02 3.315s-.255 2.55-.255 3.91V150h-12.75v-41.31zm113.06 34.17c-2.04 2.607-4.618 4.618-7.735 6.035s-6.346 2.125-9.69 2.125c-3.173 0-6.176-.51-9.01-1.53-2.776-1.02-5.213-2.465-7.31-4.335-2.04-1.927-3.655-4.222-4.845-6.885s-1.785-5.638-1.785-8.925.595-6.262 1.785-8.925 2.805-4.93 4.845-6.8c2.097-1.927 4.534-3.4 7.31-4.42 2.834-1.02 5.837-1.53 9.01-1.53 2.947 0 5.61.51 7.99 1.53 2.437 1.02 4.477 2.493 6.12 4.42 1.7 1.87 3.004 4.137 3.91 6.8s1.36 5.638 1.36 8.925v3.995h-29.58c.51 2.437 1.615 4.392 3.315 5.865 1.7 1.417 3.797 2.125 6.29 2.125 2.097 0 3.854-.453 5.27-1.36 1.474-.963 2.749-2.182 3.825-3.655l8.925 6.545zm-10.795-18.19c.057-2.153-.651-3.995-2.125-5.525s-3.371-2.295-5.695-2.295c-1.416 0-2.663.227-3.74.68s-2.011 1.048-2.805 1.785a7.9 7.9 0 0 0-1.785 2.465c-.396.907-.623 1.87-.68 2.89h16.83zm20.504-15.98h12.24v5.61h.17c.397-.793.963-1.587 1.7-2.38s1.615-1.502 2.635-2.125 2.182-1.133 3.485-1.53 2.72-.595 4.25-.595c3.23 0 5.837.51 7.82 1.53 1.983.963 3.513 2.323 4.59 4.08 1.133 1.757 1.898 3.825 2.295 6.205s.595 4.958.595 7.735V150h-12.75v-20.23a40.5 40.5 0 0 0-.17-3.655c-.057-1.303-.312-2.493-.765-3.57-.397-1.077-1.048-1.955-1.955-2.635-.85-.68-2.097-1.02-3.74-1.02s-2.975.312-3.995.935c-1.02.567-1.813 1.36-2.38 2.38-.51.963-.85 2.068-1.02 3.315s-.255 2.55-.255 3.91V150h-12.75v-41.31zm76.944 10.2h-11.22v13.77c0 1.133.056 2.182.17 3.145.113.907.368 1.7.765 2.38s.991 1.218 1.785 1.615c.85.34 1.955.51 3.315.51.68 0 1.558-.057 2.635-.17 1.133-.17 1.983-.51 2.55-1.02v10.625c-1.417.51-2.89.85-4.42 1.02s-3.032.255-4.505.255c-2.154 0-4.137-.227-5.95-.68s-3.4-1.162-4.76-2.125c-1.36-1.02-2.437-2.323-3.23-3.91-.737-1.587-1.105-3.513-1.105-5.78V118.89h-8.16v-10.2h8.16V96.45h12.75v12.24h11.22v10.2zm29.854 1.955c-1.87-2.323-4.335-3.485-7.395-3.485-1.077 0-2.125.255-3.145.765s-1.53 1.388-1.53 2.635c0 1.02.51 1.785 1.53 2.295 1.077.453 2.408.878 3.995 1.275a130.74 130.74 0 0 1 5.185 1.19c1.87.397 3.598 1.048 5.185 1.955 1.643.907 2.975 2.153 3.995 3.74 1.077 1.53 1.615 3.598 1.615 6.205 0 2.663-.595 4.873-1.785 6.63-1.133 1.7-2.607 3.088-4.42 4.165-1.813 1.02-3.853 1.728-6.12 2.125-2.267.453-4.505.68-6.715.68-2.89 0-5.808-.397-8.755-1.19-2.947-.85-5.44-2.323-7.48-4.42l7.735-8.585c1.19 1.473 2.493 2.607 3.91 3.4 1.473.737 3.173 1.105 5.1 1.105 1.473 0 2.805-.198 3.995-.595 1.19-.453 1.785-1.247 1.785-2.38 0-1.077-.538-1.87-1.615-2.38-1.02-.567-2.352-1.02-3.995-1.36-1.587-.397-3.315-.793-5.185-1.19-1.813-.453-3.542-1.105-5.185-1.955-1.587-.85-2.918-2.04-3.995-3.57-1.02-1.587-1.53-3.683-1.53-6.29 0-2.437.482-4.533 1.445-6.29 1.02-1.757 2.323-3.202 3.91-4.335 1.643-1.133 3.513-1.955 5.61-2.465a24.32 24.32 0 0 1 6.375-.85c2.72 0 5.468.397 8.245 1.19s5.128 2.21 7.055 4.25l-7.82 7.735z" fill="#180042"/></g><defs><clipPath id="A"><path fill="#fff" d="M0 0h420v154H0z"/></clipPath></defs></svg>